<svg xmlns="http://www.w3.org/2000/svg" width="38" height="38" viewBox="0 0 38 38"><defs><style>.a{fill:none;}</style></defs><path d="M9,4V5H5V27H18.037L17,32l5.3-1.1,8.8-8.8A2.964,2.964,0,0,0,27,17.818V5H23V4H21V5H11V4ZM7,7H9V8h2V7H21V8h2V7h2V9H7Zm0,4H25v8.8L19.8,25H7Zm6,2v2h2V13Zm4,0v2h2V13Zm4,0v2h2V13ZM9,17v2h2V17Zm4,0v2h2V17Zm4,0v2h2V17Zm4,0v2h2V17Zm8,2a.986.986,0,0,1,.7.3.965.965,0,0,1,0,1.4l-8.4,8.4-1.7.3.3-1.7,8.4-8.4A.986.986,0,0,1,29,19ZM9,21v2h2V21Zm4,0v2h2V21Zm4,0v2h2V21Z" transform="translate(1 1)"/><rect class="a" width="38" height="38"/></svg>