<svg xmlns="http://www.w3.org/2000/svg" width="30" height="26" viewBox="0 0 30 26"><path d="M26.5,0a5.488,5.488,0,0,0-5.4,6.549c-1.532,1.58-3.775,3.881-4.225,4.33a3,3,0,1,0,4.242,4.242c.447-.447,2.744-2.688,4.33-4.225A5.5,5.5,0,1,0,26.5,0Zm0,2a3.465,3.465,0,0,1,1.16.213L25,4.875,27.125,7l2.66-2.66A3.441,3.441,0,0,1,30,5.5,3.5,3.5,0,0,1,26.5,9a3.458,3.458,0,0,1-1.594-.4c-1.924,1.881-4.878,4.788-5.2,5.109a1,1,0,1,1-1.414-1.414c.342-.342,3.372-3.427,5.105-5.205A3.446,3.446,0,0,1,23,5.5,3.5,3.5,0,0,1,26.5,2ZM5,6V19.586L2.705,21.879A2.415,2.415,0,0,0,4.414,26H27.586a2.414,2.414,0,0,0,1.707-4.121L27,19.586V12.975c-.166.011-.331.025-.5.025a7.489,7.489,0,0,1-1.5-.15V19H7V8h9.9c.6-.613,1.289-1.323,1.947-2ZM6.414,21H25.586l2.293,2.293a.414.414,0,0,1-.293.707H4.414a.414.414,0,0,1-.293-.707Z" transform="translate(-2)"/></svg>