<svg xmlns="http://www.w3.org/2000/svg" width="23" height="24" viewBox="0 0 23 24"><path d="M9,4A3.015,3.015,0,0,0,6,7V25a3.015,3.015,0,0,0,3,3H26V20H24v2H9a2.936,2.936,0,0,0-1,.188V7A.984.984,0,0,1,9,6H24V8h2V4Zm3.223,6L10,16.842V18h2v-.842L12.051,17h1.9l.051.158V18h2V16.842L13.777,10ZM17,10v8h2.5a2.362,2.362,0,0,0,2.082-1.5H22v-1a2.427,2.427,0,0,0-.627-1.5,2.529,2.529,0,0,0,.209-.5H22v-1A2.515,2.515,0,0,0,19.5,10Zm9,0a3.015,3.015,0,0,0-3,3v2a3,3,0,0,0,6,0H27a1,1,0,0,1-2,0V13a1,1,0,0,1,2,0h2A3.015,3.015,0,0,0,26,10Zm-7,2h.5a.5.5,0,0,1,0,1H19Zm-6,2.08.3.92h-.6ZM19,15h.5a.5.5,0,0,1,0,1H19ZM9,24H24v2H9a1,1,0,0,1,0-2Z" transform="translate(-6 -4)"/></svg>