<svg xmlns="http://www.w3.org/2000/svg" width="23.968" height="24" viewBox="0 0 23.968 24"><path d="M17,4a3.992,3.992,0,0,0-1.969,7.469A4.734,4.734,0,0,0,15,12a5,5,0,1,0,5.875-4.937A3.994,3.994,0,0,0,17,4Zm0,2a1.985,1.985,0,0,1,1.813,1.156,5.037,5.037,0,0,0-3.094,2.313A1.89,1.89,0,0,1,15,8,1.984,1.984,0,0,1,17,6Zm3,3a3,3,0,1,1-3,3A2.986,2.986,0,0,1,20,9Zm-8.531,7a24.276,24.276,0,0,0-7.437,1.75l.75,1.875S9.078,18,11.469,18a10.768,10.768,0,0,1,3.969,1.281,17.843,17.843,0,0,1,1.719,1c.223.148.41.281.531.375a1.22,1.22,0,0,1,.125.125l.156.219a.751.751,0,0,1-.937.969H17l-4.344-2.094-.844,1.813,4.438,2.125h.031l.063.031a2.746,2.746,0,0,0,3.156-1,2.654,2.654,0,0,0,.438-1.875l4.813-.812a1.071,1.071,0,0,1,1.188.75,1.047,1.047,0,0,1-.594,1.313c-1.465.645-3.82,1.609-5.937,2.406-1.059.4-2.07.75-2.844,1-.387.125-.723.219-.969.281S15.148,26,15.25,26a7.661,7.661,0,0,1-.812-.344c-.473-.254-1.066-.625-1.656-1S11.582,23.9,11,23.594A3.712,3.712,0,0,0,9.188,23a8.838,8.838,0,0,0-3.094.625l.781,1.844A7.634,7.634,0,0,1,9.188,25a4.536,4.536,0,0,1,.875.344c.477.254,1.066.625,1.656,1s1.18.754,1.75,1.063A3.547,3.547,0,0,0,15.25,28a2.858,2.858,0,0,0,.844-.156c.309-.082.684-.18,1.094-.312.82-.266,1.828-.625,2.906-1.031,2.152-.809,4.539-1.766,6.063-2.437a3.089,3.089,0,0,0-1.75-5.875l-5.469.906s-.023,0-.031,0c-.031-.023-.062-.07-.094-.094l-.281-.219v.031c-.086-.062-.148-.121-.25-.187A20.468,20.468,0,0,0,16.344,17.5,11.418,11.418,0,0,0,11.469,16Z" transform="translate(-4.031 -4)"/></svg>