<svg xmlns="http://www.w3.org/2000/svg" width="38" height="38" viewBox="0 0 38 38"><path d="M1051.03,602a3.645,3.645,0,0,0-2.75,1.167,3.867,3.867,0,0,0,0,5c.036.039.092.058.129.092A5.445,5.445,0,0,0,1045.53,613h1.834a3.667,3.667,0,0,1,7.333,0h1.833a5.447,5.447,0,0,0-2.879-4.741c.036-.035.092-.054.129-.091a3.867,3.867,0,0,0,0-5A3.644,3.644,0,0,0,1051.03,602Zm0,1.834a1.683,1.683,0,0,1,1.375.55,2.02,2.02,0,0,1,0,2.566,1.994,1.994,0,0,1-2.75,0,2.023,2.023,0,0,1,0-2.566A1.684,1.684,0,0,1,1051.03,603.834ZM1035.53,608h2v-2h-2Zm4,0h2v-2h-2Zm-4-4h2v-2h-2Zm4,0h2v-2h-2Zm4,0h2v-2h-2Zm-4-4h2v-2h-2Zm4,0h2v-2h-2Zm4,0h2v-2h-2Zm2-7v-1h2v2h-18v-2h2v1h2v-1h10v1Zm-2-4v1h-10v-1h-2v1h-4v22h10v-2h-8V596h18v4.047h2V590h-4v-1Zm4,19.931h0c.029.033.078.047.11.078-.029.015-.054.036-.082.053-.043-.021-.086-.04-.128-.063.028-.028.072-.041.1-.07Z" transform="translate(-1024.53 -582)"/></svg>