<svg xmlns="http://www.w3.org/2000/svg" width="38" height="38"><path fill="none" d="M0 0h38v38H0z" data-name="Rechteck 3061"/><path fill="#030303" d="M24.75 7a6.255 6.255 0 0 0-4.437 1.844l-1.469 1.469A6.255 6.255 0 0 0 17 14.75a6.13 6.13 0 0 0 .438 2.281l1.625-1.625a4.288 4.288 0 0 1 1.187-3.687l1.469-1.469A4.3 4.3 0 0 1 24.75 9a4.216 4.216 0 0 1 3 1.25 4.272 4.272 0 0 1 0 6.031l-1.469 1.469A4.267 4.267 0 0 1 23.25 19a3.419 3.419 0 0 1-.656-.062l-1.625 1.625A6.13 6.13 0 0 0 23.25 21a6.246 6.246 0 0 0 4.438-1.844l1.469-1.469A6.255 6.255 0 0 0 31 13.25 6.3 6.3 0 0 0 24.75 7Zm-2.469 7.281-8 8 1.437 1.437 8-8ZM14.75 17a6.255 6.255 0 0 0-4.437 1.844l-1.469 1.469A6.255 6.255 0 0 0 7 24.75 6.3 6.3 0 0 0 13.25 31a6.246 6.246 0 0 0 4.438-1.844l1.469-1.469A6.255 6.255 0 0 0 21 23.25a6.13 6.13 0 0 0-.437-2.281l-1.625 1.625a4.288 4.288 0 0 1-1.187 3.688l-1.47 1.468A4.267 4.267 0 0 1 13.25 29a4.2 4.2 0 0 1-3-1.25 4.272 4.272 0 0 1 0-6.031l1.469-1.469A4.3 4.3 0 0 1 14.75 19a3.892 3.892 0 0 1 .656.063l1.625-1.625A6.13 6.13 0 0 0 14.75 17Zm0 0" data-name="Pfad 3370"/></svg>