<svg xmlns="http://www.w3.org/2000/svg" width="38" height="38" viewBox="0 0 38 38"><path d="M914.667,596.016a3.088,3.088,0,0,0-2.334.992,3.282,3.282,0,0,0,0,4.246c.029.032.078.047.11.078A4.627,4.627,0,0,0,910,605.36h1.556a3.1,3.1,0,0,1,4.2-2.912,4.462,4.462,0,0,0-1.089,2.912h1.555a3.111,3.111,0,1,1,6.222,0H924a4.628,4.628,0,0,0-2.445-4.027c.032-.031.078-.047.11-.078a3.282,3.282,0,0,0,0-4.246,3.237,3.237,0,0,0-4.58-.087v0c-.029.028-.058.056-.086.085a3.081,3.081,0,0,0-2.331-.993m0,1.557a1.433,1.433,0,0,1,1.166.468,1.722,1.722,0,0,1,0,2.179,1.688,1.688,0,0,1-2.333,0,1.722,1.722,0,0,1,0-2.179,1.435,1.435,0,0,1,1.167-.468m4.666,0a1.435,1.435,0,0,1,1.167.468,1.722,1.722,0,0,1,0,2.179,1.688,1.688,0,0,1-2.333,0,1.722,1.722,0,0,1,0-2.179,1.433,1.433,0,0,1,1.166-.468M917,601.253h0c.029.033.078.047.11.078-.029.015-.054.036-.082.053-.043-.021-.086-.04-.128-.063.028-.028.072-.041.1-.07Zm-10-14.248h2v9.01h-7v-2h5Zm12.846,6.232a9.951,9.951,0,0,0-2.1-.4A9.993,9.993,0,1,0,907.2,604.971a9.894,9.894,0,0,0,.257,2.029,12.006,12.006,0,1,1,12.393-13.763Z" transform="translate(-891 -576)"/></svg>