<svg xmlns="http://www.w3.org/2000/svg" width="38" height="38" viewBox="0 0 38 38"><path d="M9 6v26h20V12.594l-.281-.312-6-6L22.406 6Zm2 2h10v6h6v16H11Zm12 1.438L25.563 12H23Zm-.765 9.29a2.888 2.888 0 0 0-1.187-1.179 3.979 3.979 0 0 0-1.936-.43h-3.75v10h1.811V23.74h1.915a4.057 4.057 0 0 0 1.948-.427 2.878 2.878 0 0 0 1.2-1.175 3.8 3.8 0 0 0 0-3.41m-1.651 2.644a1.5 1.5 0 0 1-.637.645 2.3 2.3 0 0 1-1.1.234h-1.675v-3.619h1.661a2.381 2.381 0 0 1 1.11.227 1.456 1.456 0 0 1 .64.633 2.03 2.03 0 0 1 .207.937 2.062 2.062 0 0 1-.207.943"/></svg>