<svg xmlns="http://www.w3.org/2000/svg" width="38" height="38" viewBox="0 0 38 38"><path d="M713.7,662.057v2h3v-2Zm0,3.469v2h3v-2Zm13.4-3.469v2h3v-2Zm-9.2,0v2h8v-2Zm-8-9v22h13.063l-.687,3.469-.312,1.469,1.469-.312,3.531-.687.313-.062,9.75-9.75a3,3,0,0,0-2.127-5.127,2.926,2.926,0,0,0-1,.188V653.057Zm2,2h20v2h-20Zm0,4h20v6.75l-7.25,7.25H711.9Zm23,7a1,1,0,0,1,.719.281.975.975,0,0,1,.025,1.381l-.025.025-9.344,9.344-1.781.375.375-1.781,9.344-9.344A.934.934,0,0,1,734.9,666.057Z" transform="translate(-704.901 -647.057)"/></svg>