<svg xmlns="http://www.w3.org/2000/svg" width="38" height="38" viewBox="0 0 38 38"><path d="M15.535,17.075a2.382,2.382,0,0,0-1.554-.647,10.71,10.71,0,0,0-1.619.129A12.976,12.976,0,0,1,11,14.68c-.231-.429-.291-.794-.486-1.23a18.081,18.081,0,0,0,.486-2.1,4.786,4.786,0,0,0-.194-1.975,1.893,1.893,0,0,0-.55-.809A1.547,1.547,0,0,0,9.32,8.2l-.036,0a1.5,1.5,0,0,0-.939.324,1.441,1.441,0,0,0-.453.778,3.925,3.925,0,0,0,.032,1.781A16.064,16.064,0,0,0,8.9,13.609a20.328,20.328,0,0,1-.518,2.3,16.71,16.71,0,0,1-.841,1.716,12.185,12.185,0,0,0-1.943.713A3.494,3.494,0,0,0,4.266,19.6a1.828,1.828,0,0,0,.13,1.845,1.658,1.658,0,0,0,.777.648,1.457,1.457,0,0,0,1,.032A3.19,3.19,0,0,0,7.634,20.9a15.514,15.514,0,0,0,1-2.072,13.941,13.941,0,0,1,1.457-.519,11.942,11.942,0,0,1,1.522-.129,9.833,9.833,0,0,0,.68.907,2.866,2.866,0,0,0,1.684.809,1.868,1.868,0,0,0,1.652-.971h.032v-.032a1.73,1.73,0,0,0,.259-.907,1.453,1.453,0,0,0-.389-.907M6.37,19.955a2.284,2.284,0,0,1-.68.648c-.012-.017.021,0,0-.032H5.658c-.1-.151-.077-.089,0-.227a2.267,2.267,0,0,1,.745-.68c.031-.021.1-.046.128-.065-.056.085-.1.283-.161.356m3.4-3.173c-.049.013-.081.053-.13.065.061-.161.138-.259.195-.42.064-.19.064-.361.129-.551v0h0v0c.187.326.414.533.615.841-.291.053-.518,0-.809.065M14.3,18.141c-.129.214-.142.2-.227.194a2.17,2.17,0,0,1-.582-.323c.073,0,.227-.041.291-.033a1.549,1.549,0,0,1,.518.13c-.008.016.013.012,0,.032M0,0V26H20V6.594l-.281-.312-6-6L13.406,0ZM2,2H12V8h6V24H2ZM14,3.438,16.563,6H14Z" transform="translate(9 6)"/></svg>