<svg xmlns="http://www.w3.org/2000/svg" width="38" height="38" viewBox="0 0 38 38"><path d="M16,8a4.969,4.969,0,0,0-3.219,8.781,7.186,7.186,0,0,0-2.656,2.406,5.232,5.232,0,0,0-1.344-1.344,4,4,0,1,0-5.562,0A5.041,5.041,0,0,0,1,22H3a3,3,0,0,1,6,0v1h2a5,5,0,0,1,10,0h2V22a3,3,0,0,1,6,0h2a5.041,5.041,0,0,0-2.219-4.156,4,4,0,1,0-5.562,0,5.232,5.232,0,0,0-1.344,1.344,7.186,7.186,0,0,0-2.656-2.406A4.969,4.969,0,0,0,16,8Zm0,2a3,3,0,1,1-3,3A2.986,2.986,0,0,1,16,10ZM6,13a2,2,0,1,1-2,2A1.984,1.984,0,0,1,6,13Zm20,0a2,2,0,1,1-2,2A1.984,1.984,0,0,1,26,13Z" transform="translate(3 4)"/></svg>