<svg xmlns="http://www.w3.org/2000/svg" width="34.465" height="46.55" viewBox="0 0 34.465 46.55"><defs><style>.a{fill:#fff;fill-rule:evenodd;}</style></defs><g transform="translate(0)"><g transform="translate(-36.192 -67.091)"><path class="a" d="M38.686,77.385h.255a2.661,2.661,0,0,1,2.174,2.43v3.006H36.192v-2.75l.064-.256a1.974,1.974,0,0,1,.383-1.215l.128-.191.192-.256a1.9,1.9,0,0,1,1.215-.7l.256-.064h.256"/><path class="a" d="M62.281,77.385h.191l.256.064a1.842,1.842,0,0,1,1.087.576l.128.128.192.256a2.156,2.156,0,0,1,.512,1.406l.063.256v2.75H59.787v-2.75a2.662,2.662,0,0,1,2.174-2.686h.32"/><path class="a" d="M50.451,73.677l.128.064c1.579.022,2.5,1.644,2.686,3.069v.384H47.638V76.81c.1-1.455,1.119-3.022,2.685-3.069l.128-.064M36.192,83.908h7.993v-7.1c.225-3,1.721-5.38,4.6-6.33l.575-.064V67.091H51.6v3.325l.512.191c2.647.761,4.252,3.547,4.348,6.2v7.1h8.249V96.5H61.385V87.3h-8.12V80.583H47.638V87.3H39.517V96.5H36.192Z"/><path class="a" d="M53.265,92.028v4.22H44.441v8.313h9.016v9.08h8.7v-9.08h8.5V96.5h-.575v7.609H61.513v8.952H54.1v-8.952H45.08V96.824H53.9v-4.8h-.639"/></g></g></svg>