<svg xmlns="http://www.w3.org/2000/svg" width="38" height="38" viewBox="0 0 38 38"><path d="M11.875,0l-.094.031-11,2.438L0,2.656V21.344l.781.188,11,2.438.094.031H14V21H24V3H14V0ZM12,2.031V21.969L2,19.781V4.219ZM14,5h8V19H14V17h2V15H14V14h2V12H14V11h2V9H14V8h2V6H14Zm3,3h4V6H17ZM10.156,7l-2.281.281L6.625,9.969c-.133.387-.23.68-.281.875H6.313A6.054,6.054,0,0,0,6.063,10L5.438,7.688l-2.125.25L3.219,8,5,12,3,16l2.156.25.875-2.469a6.473,6.473,0,0,0,.219-.719h.031a3.533,3.533,0,0,0,.156.688l1.344,2.938L10.219,17,7.563,11.969ZM17,11h4V9H17Zm0,3h4V12H17Zm0,3h4V15H17Zm4.6,6.032L20.234,24.4l2.175,2.175H16.568v1.907h5.841l-2.175,2.176L21.6,32.032l3.815-3.815.655-.685-.655-.686Z" transform="translate(6 3)"/></svg>