<svg xmlns="http://www.w3.org/2000/svg" width="38" height="38" viewBox="0 0 38 38"><defs><style>.a{fill:none;}</style></defs><path d="M6,3V8H5v2H8V5H24V16.438a7.419,7.419,0,0,1,2-.412V3ZM16,9a3.989,3.989,0,0,0-2.785,6.855A5.01,5.01,0,0,0,11,20h2a3,3,0,0,1,6,0h2a5.01,5.01,0,0,0-2.215-4.145A3.989,3.989,0,0,0,16,9ZM6,11v2H5v2H8V11Zm10,0a2,2,0,1,1-2,2A1.985,1.985,0,0,1,16,11ZM6,16v2H5v2H8V16Zm20.5,2A5.549,5.549,0,0,0,21,23.5a5.454,5.454,0,0,0,1,3.1l-3.7,3.7,1.4,1.4L23.4,28a5.71,5.71,0,0,0,3.1,1,5.5,5.5,0,0,0,0-11Zm0,2A3.5,3.5,0,1,1,23,23.5,3.543,3.543,0,0,1,26.5,20ZM6,22v5H19.871a7.473,7.473,0,0,1-.721-2H8V22Z" transform="translate(1 2)"/><rect class="a" width="38" height="38"/></svg>