<svg xmlns="http://www.w3.org/2000/svg" width="38" height="38" viewBox="0 0 38 38"><path d="M11.5,6A3.5,3.5,0,1,0,15,9.5,3.514,3.514,0,0,0,11.5,6Zm9,0A3.5,3.5,0,1,0,24,9.5,3.514,3.514,0,0,0,20.5,6Zm-9,2A1.5,1.5,0,1,1,10,9.5,1.486,1.486,0,0,1,11.5,8Zm9,0A1.5,1.5,0,1,1,19,9.5,1.486,1.486,0,0,1,20.5,8ZM7,12a3.978,3.978,0,0,0-2.781,6.844A5.036,5.036,0,0,0,2,23H4a3,3,0,0,1,6,0h2a5.036,5.036,0,0,0-2.219-4.156A3.978,3.978,0,0,0,7,12Zm5,11a5.024,5.024,0,0,0-1,3h2a3,3,0,0,1,6,0h2a5.006,5.006,0,0,0-2.219-4.156,4,4,0,1,0-5.562,0A5.042,5.042,0,0,0,12,23Zm8,0h2a3,3,0,0,1,6,0h2a5.036,5.036,0,0,0-2.219-4.156,4,4,0,1,0-5.562,0A5.036,5.036,0,0,0,20,23ZM7,14a2,2,0,1,1-2,2A1.984,1.984,0,0,1,7,14Zm18,0a2,2,0,1,1-2,2A1.984,1.984,0,0,1,25,14Zm-9,3a2,2,0,1,1-2,2A1.984,1.984,0,0,1,16,17Z" transform="translate(3 3)"/></svg>