<svg xmlns="http://www.w3.org/2000/svg" width="38" height="38" viewBox="0 0 38 38"><path d="M18 8a3.011 3.011 0 00-2.812 2H7v2h8.188a2.978 2.978 0 005.625 0H31v-2H20.813A3.011 3.011 0 0018 8zm0 2a1 1 0 11-1 1 .987.987 0 011-1zm7 6a3.011 3.011 0 00-2.812 2H7v2h15.188a2.978 2.978 0 005.625 0H31v-2h-3.187A3.011 3.011 0 0025 16zm0 2a1 1 0 11-1 1 .987.987 0 011-1zm-11 6a3.011 3.011 0 00-2.812 2H7v2h4.188a2.978 2.978 0 005.625 0H31v-2H16.813A3.011 3.011 0 0014 24zm0 2a1 1 0 11-1 1 .987.987 0 011-1z"/></svg>