<svg xmlns="http://www.w3.org/2000/svg" width="34.465" height="46.55" viewBox="0 0 34.465 46.55"><title>parlament</title><path d="M2.494 10.294h.255a2.662 2.662 0 012.174 2.43v3.006H0v-2.75l.064-.256a1.972 1.972 0 01.383-1.215l.128-.191.192-.256a1.9 1.9 0 011.215-.7l.256-.064h.256m23.595-.004h.191l.256.064a1.846 1.846 0 011.087.576l.128.128.192.256a2.16 2.16 0 01.512 1.406l.063.256v2.75h-4.923v-2.75a2.663 2.663 0 012.174-2.686h.32" fill-rule="evenodd"/><path class="b" d="M11.449 13.492h5.627v6.717h8.12v9.2h3.324V16.816h-8.249v-6.713H7.993v6.714H0v12.592h3.325v-9.2h8.124z"/><path class="b" d="M33.89 29.409v7.609h-8.569v8.953h-7.413v-8.952h-9.02v-7.285h8.82v-4.8h-.639v4.22h-8.82v8.317h9.016v9.08h8.7v-9.08h8.5V29.41zM11.449 9.719c.1-1.455 1.119-3.022 2.685-3.069l.128-.064.128.064c1.579.022 2.5 1.644 2.686 3.069v.384h3.195v-.387c-.1-2.653-1.7-5.439-4.348-6.2l-.512-.191V0h-2.24v3.323l-.575.064c-2.879.95-4.375 3.33-4.6 6.33v.386h3.453z"/></svg>