<svg xmlns="http://www.w3.org/2000/svg" width="38" height="38" viewBox="0 0 38 38"><path d="M5 6v22h15.469l.656-.656A7.2 7.2 0 0120.656 26H7V12h20v5.531c.164-.012.332-.031.5-.031a7.03 7.03 0 011.5.156V6zm2 2h20v2H7zm3 6v2h2v-2zm4 0v2h10v-2zm-4 4v2h2v-2zm4 0v2h7.5a7.625 7.625 0 012.281-2zm13.5 1a5.513 5.513 0 00-5.5 5.5 5.433 5.433 0 00.969 3.094l-3.687 3.688 1.438 1.438 3.688-3.687A5.433 5.433 0 0027.5 30a5.5 5.5 0 000-11zm0 2a3.5 3.5 0 11-3.5 3.5 3.484 3.484 0 013.5-3.5zM10 22v2h2v-2zm4 0v2h6.031a7.4 7.4 0 01.406-2z"/></svg>