<svg xmlns="http://www.w3.org/2000/svg" width="38" height="38" viewBox="0 0 38 38"><defs><style>.a{fill:none;}</style></defs><rect class="a" width="38" height="38"/><path d="M724.084,382h-14.6a6,6,0,0,1-.434-.636,6.492,6.492,0,0,0-.6-.87,1.755,1.755,0,0,0-1.32-.7H702.2a2.083,2.083,0,0,0-2.057,2.076v19.849A2.084,2.084,0,0,0,702.2,403.8h21.883a2.085,2.085,0,0,0,2.058-2.077V384.077A2.084,2.084,0,0,0,724.084,382Zm-22.009,2.762v-2.9a.118.118,0,0,1,.11-.122h4.782a5.446,5.446,0,0,1,.437.636,6.96,6.96,0,0,0,.593.863,1.724,1.724,0,0,0,1.316.707l14.795,0c0-.005.039.009.065.035a.131.131,0,0,1,.037.1v.685c-.043,0-.085-.005-.127-.005H702.2C702.156,384.76,702.116,384.762,702.075,384.765Zm0,2.064a.118.118,0,0,1,.112-.121l21.921,0h0a.112.112,0,0,1,.064.037.125.125,0,0,1,.037.093v14.894a.127.127,0,0,1-.033.084.131.131,0,0,1-.094.037H702.2a.146.146,0,0,1-.091-.034.127.127,0,0,1-.037-.1Z" transform="translate(-694.143 -372.798)"/></svg>