<svg xmlns="http://www.w3.org/2000/svg" width="38" height="38" viewBox="0 0 38 38"><path fill="none" d="M0 0h38v38H0z"/><path d="M29.941 9.202h-14.6a6 6 0 01-.434-.636 6.492 6.492 0 00-.6-.87 1.755 1.755 0 00-1.32-.7h-4.93A2.083 2.083 0 006 9.072v19.849a2.084 2.084 0 002.057 2.081H29.94a2.085 2.085 0 002.058-2.077V11.279a2.084 2.084 0 00-2.057-2.077zM7.932 11.964v-2.9a.118.118 0 01.11-.122h4.782a5.446 5.446 0 01.437.636 6.96 6.96 0 00.593.863 1.724 1.724 0 001.316.707h14.795c0-.005.039.009.065.035a.131.131 0 01.037.1v.685c-.043 0-.085-.005-.127-.005H8.057a1.274 1.274 0 00-.125.004zm0 2.064a.118.118 0 01.112-.121h21.921a.112.112 0 01.064.037.125.125 0 01.037.093v14.894a.127.127 0 01-.033.084.131.131 0 01-.094.037H8.057a.146.146 0 01-.091-.034.127.127 0 01-.037-.1z"/></svg>