<svg xmlns="http://www.w3.org/2000/svg" width="38" height="38" viewBox="0 0 38 38"><path fill="none" d="M0 0h38v38H0z"/><path d="M11 7a3.015 3.015 0 00-3 3v18a3.015 3.015 0 003 3h17v-8h-2v2H11a2.936 2.936 0 00-1 .188V10a.984.984 0 011-1h15v2h2V7zm3.223 6L12 19.842V21h2v-.842l.051-.158h1.9l.051.158V21h2v-1.158L15.777 13zM19 13v8h2.5a2.362 2.362 0 002.082-1.5H24v-1a2.427 2.427 0 00-.627-1.5 2.529 2.529 0 00.209-.5H24v-1a2.515 2.515 0 00-2.5-2.5zm9 0a3.015 3.015 0 00-3 3v2a3 3 0 006 0h-2a1 1 0 01-2 0v-2a1 1 0 012 0h2a3.015 3.015 0 00-3-3zm-7 2h.5a.5.5 0 010 1H21zm-6 2.08l.3.92h-.6zm6 .92h.5a.5.5 0 010 1H21zm-10 9h15v2H11a1 1 0 010-2z"/></svg>