<svg xmlns="http://www.w3.org/2000/svg" width="38" height="38" viewBox="0 0 38 38"><path d="M1073.064,552.684v-6h2.586l1.415,1.415,1.389-1.439-1.976-1.976h-5.414v4h-7v-10h7v4h13v-8h-5.586l-2-2h-5.414v4h-7v-4h-2v18h9v4h4.088v-2Zm0-18h2.586l2,2h4.414v4h-9Zm10.5,11a3.645,3.645,0,0,0-2.75,1.167,3.865,3.865,0,0,0,0,5,1.527,1.527,0,0,0,.129.092,5.447,5.447,0,0,0-2.879,4.743h1.833a3.667,3.667,0,0,1,7.334,0h1.833a5.447,5.447,0,0,0-2.879-4.741c.036-.036.092-.054.129-.092a3.865,3.865,0,0,0,0-5A3.64,3.64,0,0,0,1083.564,545.685Zm0,1.833a1.689,1.689,0,0,1,1.375.55,2.021,2.021,0,0,1,0,2.567,1.994,1.994,0,0,1-2.75,0,2.024,2.024,0,0,1,0-2.567A1.689,1.689,0,0,1,1083.564,547.518Z" transform="translate(-1056.064 -525.684)"/></svg>