<svg xmlns="http://www.w3.org/2000/svg" width="38" height="38" viewBox="0 0 38 38"><path fill="none" d="M0 0h38v38H0z"/><path d="M28.5 6a5.488 5.488 0 00-5.4 6.549 760.345 760.345 0 01-4.225 4.33 3 3 0 104.242 4.242c.447-.447 2.744-2.688 4.33-4.225A5.5 5.5 0 1028.5 6zm0 2a3.465 3.465 0 011.16.213L27 10.875 29.125 13l2.66-2.66A3.441 3.441 0 0132 11.5a3.5 3.5 0 01-3.5 3.5 3.458 3.458 0 01-1.594-.4 1684.13 1684.13 0 00-5.2 5.109 1 1 0 11-1.414-1.414c.342-.342 3.372-3.427 5.105-5.205A3.446 3.446 0 0125 11.5 3.5 3.5 0 0128.5 8zM7 12v13.586l-2.295 2.293A2.415 2.415 0 006.414 32h23.172a2.414 2.414 0 001.707-4.121L29 25.586v-6.611c-.166.011-.331.025-.5.025a7.489 7.489 0 01-1.5-.15V25H9V14h9.9c.6-.613 1.289-1.323 1.947-2zm1.414 15h19.172l2.293 2.293a.414.414 0 01-.293.707H6.414a.414.414 0 01-.293-.707z"/></svg>