<svg xmlns="http://www.w3.org/2000/svg" width="38" height="38" viewBox="0 0 38 38"><defs><style>.a{fill:none;}.b{fill:#fff;}.c,.d{stroke:none;}.d{fill:#0b0b0b;}</style></defs><rect class="a" width="38" height="38"/><g transform="translate(-200 -298)"><g transform="translate(145 318)"><g class="b" transform="translate(63 -11)"><path class="c" d="M 10 19 C 5.037380218505859 19 1 14.96261978149414 1 10 C 1 5.037380218505859 5.037380218505859 1 10 1 C 14.96261978149414 1 19 5.037380218505859 19 10 C 19 14.96261978149414 14.96261978149414 19 10 19 Z"/><path class="d" d="M 10 2 C 5.588789939880371 2 2 5.588789939880371 2 10 C 2 14.41121006011963 5.588789939880371 18 10 18 C 14.41121006011963 18 18 14.41121006011963 18 10 C 18 5.588789939880371 14.41121006011963 2 10 2 M 10 0 C 15.52285003662109 0 20 4.477149963378906 20 10 C 20 15.52285003662109 15.52285003662109 20 10 20 C 4.477149963378906 20 0 15.52285003662109 0 10 C 0 4.477149963378906 4.477149963378906 0 10 0 Z"/></g></g></g></svg>