<svg xmlns="http://www.w3.org/2000/svg" width="38" height="38" viewBox="0 0 38 38"><title>compensation</title><path d="M19.969 7A3.992 3.992 0 0018 14.469a4.734 4.734 0 00-.031.531 5 5 0 105.875-4.937A3.994 3.994 0 0019.969 7zm0 2a1.985 1.985 0 011.813 1.156 5.037 5.037 0 00-3.094 2.313A1.89 1.89 0 0117.969 11a1.984 1.984 0 012-2zm3 3a3 3 0 11-3 3 2.986 2.986 0 013-3zm-8.531 7a24.276 24.276 0 00-7.437 1.75l.75 1.875S12.047 21 14.438 21a10.768 10.768 0 013.969 1.281 17.843 17.843 0 011.719 1c.223.148.41.281.531.375a1.22 1.22 0 01.125.125l.156.219a.751.751 0 01-.937.969h-.032l-4.344-2.094-.844 1.813 4.438 2.125h.031l.063.031a2.746 2.746 0 003.156-1 2.654 2.654 0 00.438-1.875l4.813-.812a1.071 1.071 0 011.188.75 1.047 1.047 0 01-.594 1.313c-1.465.645-3.82 1.609-5.937 2.406-1.059.4-2.07.75-2.844 1-.387.125-.723.219-.969.281s-.447.093-.345.093a7.661 7.661 0 01-.812-.344c-.473-.254-1.066-.625-1.656-1s-1.2-.756-1.782-1.062A3.712 3.712 0 0012.157 26a8.838 8.838 0 00-3.094.625l.781 1.844A7.634 7.634 0 0112.157 28a4.536 4.536 0 01.875.344c.477.254 1.066.625 1.656 1s1.18.754 1.75 1.063a3.547 3.547 0 001.781.593 2.858 2.858 0 00.844-.156c.309-.082.684-.18 1.094-.312.82-.266 1.828-.625 2.906-1.031 2.152-.809 4.539-1.766 6.063-2.437a3.089 3.089 0 00-1.75-5.875l-5.469.906h-.031c-.031-.023-.062-.07-.094-.094l-.281-.219v.031c-.086-.062-.148-.121-.25-.187a20.468 20.468 0 00-1.938-1.126 11.418 11.418 0 00-4.875-1.5z"/></svg>