<svg xmlns="http://www.w3.org/2000/svg" width="38" height="38" viewBox="0 0 38 38"><defs><style>.a{fill:none;}</style></defs><path d="M15,5a3.011,3.011,0,0,0-2.812,2H4V9h8.188a2.978,2.978,0,0,0,5.625,0H28V7H17.813A3.011,3.011,0,0,0,15,5Zm0,2a1,1,0,1,1-1,1A.987.987,0,0,1,15,7Zm7,6a3.011,3.011,0,0,0-2.812,2H4v2H19.188a2.978,2.978,0,0,0,5.625,0H28V15H24.813A3.011,3.011,0,0,0,22,13Zm0,2a1,1,0,1,1-1,1A.987.987,0,0,1,22,15ZM11,21a3.011,3.011,0,0,0-2.812,2H4v2H8.188a2.978,2.978,0,0,0,5.625,0H28V23H13.813A3.011,3.011,0,0,0,11,21Zm0,2a1,1,0,1,1-1,1A.987.987,0,0,1,11,23Z" transform="translate(3 3)"/><path class="a" d="M0,0H38V38H0Z"/></svg>