<svg xmlns="http://www.w3.org/2000/svg" width="38" height="38" viewBox="0 0 38 38"><title>drag and drop</title><path d="M15.586,2.586,11.024,7.148l1.37,1.37L14.617,6.3v5.414h1.938V6.3l2.222,2.222,1.37-1.37ZM7.148,11.024,2.586,15.586l4.562,4.562,1.37-1.37L6.3,16.555h6.383V14.617H6.3l2.222-2.222Zm16.877,0-1.37,1.37,2.222,2.222H18.493v1.938h6.383l-2.222,2.222,1.37,1.37,4.562-4.562Zm-9.407,7.469v6.383l-2.222-2.222-1.37,1.37,4.562,4.562,4.562-4.562-1.37-1.37-2.222,2.222V18.493Z" transform="translate(3.414 3.414)"/></svg>