<svg xmlns="http://www.w3.org/2000/svg" width="38" height="38" viewBox="0 0 38 38"><defs><style>.a{fill:none;}.b{fill:#fff;}.c,.d{stroke:none;}.d{fill:#0b0b0b;}</style></defs><path class="a" d="M0,0H38V38H0Z"/><g transform="translate(-131 227)"><g class="b" transform="translate(140 -218)"><path class="c" d="M 17 19 L 3 19 C 1.897199988365173 19 1 18.1028003692627 1 17 L 1 3 C 1 1.897199988365173 1.897199988365173 1 3 1 L 17 1 C 18.1028003692627 1 19 1.897199988365173 19 3 L 19 17 C 19 18.1028003692627 18.1028003692627 19 17 19 Z"/><path class="d" d="M 3 2 C 2.448600769042969 2 2 2.448600769042969 2 3 L 2 17 C 2 17.55139923095703 2.448600769042969 18 3 18 L 17 18 C 17.55139923095703 18 18 17.55139923095703 18 17 L 18 3 C 18 2.448600769042969 17.55139923095703 2 17 2 L 3 2 M 3 0 L 17 0 C 18.65685081481934 0 20 1.343149185180664 20 3 L 20 17 C 20 18.65685081481934 18.65685081481934 20 17 20 L 3 20 C 1.343149185180664 20 0 18.65685081481934 0 17 L 0 3 C 0 1.343149185180664 1.343149185180664 0 3 0 Z"/></g></g></svg>