<svg xmlns="http://www.w3.org/2000/svg" width="38" height="38" viewBox="0 0 38 38"><defs><style>.a{fill:none;}</style></defs><path d="M4,5V27H19.469l.656-.656A7.2,7.2,0,0,1,19.656,25H6V11H26v5.531c.164-.012.332-.031.5-.031a7.03,7.03,0,0,1,1.5.156V5ZM6,7H26V9H6Zm3,6v2h2V13Zm4,0v2H23V13ZM9,17v2h2V17Zm4,0v2h7.5a7.625,7.625,0,0,1,2.281-2Zm13.5,1A5.513,5.513,0,0,0,21,23.5a5.433,5.433,0,0,0,.969,3.094l-3.687,3.688,1.438,1.438,3.688-3.687A5.433,5.433,0,0,0,26.5,29a5.5,5.5,0,0,0,0-11Zm0,2A3.5,3.5,0,1,1,23,23.5,3.484,3.484,0,0,1,26.5,20ZM9,21v2h2V21Zm4,0v2h6.031a7.4,7.4,0,0,1,.406-2Z" transform="translate(1 1)"/><rect class="a" width="38" height="38"/></svg>