<svg xmlns="http://www.w3.org/2000/svg" width="34.465" height="46.55"><defs><style/></defs><path class="a" d="M2.494 10.294h.255a2.661 2.661 0 012.174 2.43v3.006H0v-2.75l.064-.256a1.974 1.974 0 01.383-1.215l.128-.191.192-.256a1.9 1.9 0 011.215-.7l.256-.064h.256M26.089 10.294h.191l.256.064a1.842 1.842 0 011.087.576l.128.128.192.256a2.156 2.156 0 01.512 1.406l.063.256v2.75h-4.923v-2.75a2.662 2.662 0 012.174-2.686h.32"/><path class="a" d="M14.259 6.586l.128.064c1.579.022 2.5 1.644 2.686 3.069v.384h-5.627v-.384c.1-1.455 1.119-3.022 2.685-3.069l.128-.064M0 16.817h7.993v-7.1c.225-3 1.721-5.38 4.6-6.33l.575-.064V0h2.24v3.325l.512.191c2.647.761 4.252 3.547 4.348 6.2v7.1h8.249v12.593h-3.324v-9.2h-8.12v-6.717h-5.627v6.717H3.325v9.2H0z"/><path class="a" d="M17.073 24.937v4.22H8.249v8.313h9.016v9.08h8.7v-9.08h8.5v-8.061h-.575v7.609h-8.569v8.952h-7.413v-8.952h-9.02v-7.285h8.82v-4.8h-.639"/></svg>