<svg xmlns="http://www.w3.org/2000/svg" viewBox="0 0 38 38"><path d="M23.846,5.031a2.941,2.941,0,0,0-2.573,1.974L16.607,20.347l-.09.269.06.269.927,3.5.359,1.376L19,24.924l2.872-2.184.239-.179.09-.269L26.837,8.95A2.976,2.976,0,0,0,25.012,5.18,2.921,2.921,0,0,0,23.846,5.031Zm.09,1.855a1.385,1.385,0,0,1,.449.09.973.973,0,0,1,.658,1.346L20.465,21.394,18.97,22.5l-.449-1.765,4.547-13.1a1.094,1.094,0,0,1,.509-.658A.773.773,0,0,1,23.935,6.886ZM9.786,11.7a4.275,4.275,0,0,0-3.44,2.273A9.172,9.172,0,0,0,5,18.881a8.388,8.388,0,0,0,.568,3.32,3.037,3.037,0,0,0,2.692,1.944A3.331,3.331,0,0,0,10.953,22.8c0,.026.026.03.03.06a5.1,5.1,0,0,0,.269,1.2,1.724,1.724,0,0,0,.449.658,1.5,1.5,0,0,0,.957.389,1.841,1.841,0,0,0,1.316-.568c.06.112.071.172.15.3a2.927,2.927,0,0,0,.927.987,2.192,2.192,0,0,0,1.675.209l-.479-1.855c-.172.045-.161.03-.209,0a1.182,1.182,0,0,1-.269-.329c-.12-.191-.243-.43-.389-.688a2.115,2.115,0,0,0-.3-.449,1.17,1.17,0,0,0-.868-.389,1.6,1.6,0,0,0-1.256.568,3.368,3.368,0,0,1-.09-.329,5.551,5.551,0,0,0-.269-1.167,1.785,1.785,0,0,0-.419-.688,1.431,1.431,0,0,0-.957-.389,1.8,1.8,0,0,0-1.286.628,7.879,7.879,0,0,0-.509.718c-.273.374-.374.568-1.167.568-.471,0-.658-.187-.927-.808a6.951,6.951,0,0,1-.419-2.543,7.448,7.448,0,0,1,1.047-3.889,2.539,2.539,0,0,1,1.825-1.376.621.621,0,0,1,.6.3,2.81,2.81,0,0,1,.359,1.615h1.914a4.526,4.526,0,0,0-.748-2.752A2.669,2.669,0,0,0,9.786,11.7Z" transform="translate(3 2.977)"/></svg>