<svg xmlns="http://www.w3.org/2000/svg" viewBox="0 0 38 38"><path d="M11,4h2v9H6V11h5Zm1-4a11.987,11.987,0,0,0-1.644,23.863,12.612,12.612,0,0,1-.267-2.062A9.99,9.99,0,1,1,21,7.719a12.521,12.521,0,0,1,2.3.355A11.985,11.985,0,0,0,12,0M27.092,19.542v1.524H25.56l-.983,2.466H23.391V26H21.868V23.532H17.223V26H15.7V23.532H14.514l-.983-2.466H12V19.542ZM15.074,21.066l.369.944h8.205l.369-.944Zm9.26-3.613v1.471h1.524V17.453a1.374,1.374,0,0,0-.756-2.519h-.011A1.373,1.373,0,0,0,23.719,16.3a1.38,1.38,0,0,0,.615,1.152M17.377,15.6A3.217,3.217,0,0,1,19.534,10h.024a3.217,3.217,0,0,1,2.157,5.6,3.861,3.861,0,0,1,1.676,3.177v.145H21.864l0-.149q0-.048,0-.1a2.275,2.275,0,0,0-2.27-2.223h-.157a2.271,2.271,0,0,0-2.218,2.319l0,.148H15.7v-.145A3.858,3.858,0,0,1,17.377,15.6m2.169-.668a1.7,1.7,0,0,0,0-3.41h-.018a1.7,1.7,0,0,0-1.688,1.7,1.708,1.708,0,0,0,1.706,1.706" transform="translate(5 6)"/></svg>