<svg xmlns="http://www.w3.org/2000/svg" viewBox="0 0 38 38"><path d="M4,19H6V17H4Zm4,0h2V17H8ZM4,15H6V13H4Zm4,0h2V13H8Zm4,0h2V13H12ZM8,11h2V9H8Zm4,0h2V9H12Zm4,0h2V9H16Zm2-7V3h2V5H2V3H4V4H6V3H16V4ZM16,0V1H6V0H4V1H0V23H10V21H2V7H20v5.323h2V1H18V0Zm1.667,14.7a3.094,3.094,0,0,0-2.334.991,3.275,3.275,0,0,0,0,4.241c.029.032.078.047.11.078A4.622,4.622,0,0,0,13,24.034h1.556a3.1,3.1,0,0,1,4.2-2.909,4.455,4.455,0,0,0-1.089,2.909h1.555a3.111,3.111,0,1,1,6.222,0H27a4.623,4.623,0,0,0-2.445-4.023c.032-.031.078-.047.11-.078a3.275,3.275,0,0,0,0-4.241,3.239,3.239,0,0,0-4.581-.085c-.029.028-.058.056-.086.085a3.087,3.087,0,0,0-2.331-.992m0,1.556a1.432,1.432,0,0,1,1.166.467,1.719,1.719,0,0,1,0,2.177,1.429,1.429,0,0,1-1.166.467A1.431,1.431,0,0,1,16.5,18.9a1.719,1.719,0,0,1,0-2.177,1.434,1.434,0,0,1,1.167-.467m4.666,0a1.434,1.434,0,0,1,1.167.467,1.719,1.719,0,0,1,0,2.177,1.69,1.69,0,0,1-2.333,0,1.719,1.719,0,0,1,0-2.177,1.432,1.432,0,0,1,1.166-.467M20,19.931h0c.029.033.078.047.11.078-.029.015-.054.036-.082.053-.043-.021-.086-.04-.128-.063.028-.028.072-.041.1-.07Z" transform="translate(5.5 7)"/></svg>