<svg xmlns="http://www.w3.org/2000/svg" viewBox="0 0 38 38"><path d="M21,14.5c-5.9,0-8.876,5.155-9,5.375l.273,1.246L17.762,25l1.382-.478a1.934,1.934,0,0,1,3.71-.008L24.239,25l5.488-3.879L30,19.875c-.124-.22-3.1-5.375-9-5.375m3.039,8.362a3.672,3.672,0,0,0-6.077,0l-3.9-2.758A8.834,8.834,0,0,1,21,16.38,8.836,8.836,0,0,1,27.941,20.1ZM8,9h2v2H8Zm4,4h2v2H12ZM8,17h2v2H8ZM4,17H6v2H4Zm4-4h2v2H8ZM4,13H6v2H4Zm8-4h2v2H12ZM2,21V7H20v5.687h2V1H18V0H16V1H6V0H4V1H0V23H10V21ZM2,3H4V4H6V3H16V4h2V3h2V5H2ZM16,9h2v2H16Z" transform="translate(4 6.5)"/></svg>