<svg xmlns="http://www.w3.org/2000/svg" width="38" height="38" viewBox="0 0 38 38"><path d="M7 5v5H6v2h3V7h16v11.438a7.419 7.419 0 012-.412V5zm10 6a3.989 3.989 0 00-2.785 6.855A5.01 5.01 0 0012 22h2a3 3 0 016 0h2a5.01 5.01 0 00-2.215-4.145A3.989 3.989 0 0017 11zM7 13v2H6v2h3v-4zm10 0a2 2 0 11-2 2 1.985 1.985 0 012-2zM7 18v2H6v2h3v-4zm20.5 2a5.549 5.549 0 00-5.5 5.5 5.454 5.454 0 001 3.1l-3.7 3.7 1.4 1.4 3.7-3.7a5.71 5.71 0 003.1 1 5.5 5.5 0 000-11zm0 2a3.5 3.5 0 11-3.5 3.5 3.543 3.543 0 013.5-3.5zM7 24v5h13.871a7.473 7.473 0 01-.721-2H9v-3z"/></svg>